0.11m3min_grf.mot
version=1
nRows=15
nColumns 19
inDegrees=yes
endheader
time	1_ground_force_vx	1_ground_force_vy	1_ground_force_vz	1_ground_force_px	1_ground_force_py	1_ground_force_pz	1_ground_torque_x	1_ground_torque_y	1_ground_torque_z	2_ground_force_vx	2_ground_force_vy	2_ground_force_vz	2_ground_force_px	2_ground_force_py	2_ground_force_pz	2_ground_torque_x	2_ground_torque_y	2_ground_torque_z
            0.005000	          -42.146206	         1065.248582	          -52.924599	           -0.190938	            0.006198	           -0.397811	            0.046026	           -1.163307	            0.057796	          -25.085563	         1167.593799	           60.114255	           -0.229268	            0.005463	           -0.643670	            0.002944	           -0.137038	           -0.007055
            0.005500	          -42.051667	         1060.197696	          -52.166923	           -0.190875	            0.006199	           -0.397979	            0.047662	           -1.201656	            0.059127	          -25.679450	         1163.357062	           59.817832	           -0.229188	            0.005463	           -0.643645	           -0.002959	            0.134060	            0.006893
            0.006000	          -41.866124	         1056.409566	          -51.587480	           -0.190854	            0.006199	           -0.397990	            0.044911	           -1.133248	            0.055340	          -26.085269	         1158.936923	           59.520674	           -0.229083	            0.005463	           -0.643473	           -0.005866	            0.260622	            0.013385
            0.006500	          -41.633289	         1052.799307	          -50.411254	           -0.190676	            0.006198	           -0.397792	            0.041577	           -1.051374	            0.050343	          -26.112162	         1153.412244	           59.547910	           -0.229062	            0.005463	           -0.643309	           -0.002149	            0.094945	            0.004902
            0.007000	          -41.906837	         1048.291280	          -50.154760	           -0.190611	            0.006199	           -0.397947	            0.041680	           -1.042627	            0.049884	          -25.447870	         1151.022609	           58.975952	           -0.228845	            0.005464	           -0.643577	            0.005369	           -0.242823	           -0.012442
            0.007500	          -42.269748	         1042.878385	          -49.030645	           -0.190638	            0.006200	           -0.398118	            0.042252	           -1.042442	            0.049010	          -25.335768	         1145.868681	           58.488234	           -0.228679	            0.005464	           -0.643442	            0.006372	           -0.288186	           -0.014710
            0.008000	          -42.405256	         1038.009250	          -48.592614	           -0.190534	            0.006200	           -0.398172	            0.043284	           -1.059512	            0.049599	          -25.182211	         1142.188474	           57.818039	           -0.228638	            0.005464	           -0.643373	            0.004829	           -0.219049	           -0.011088
            0.008500	          -42.448869	         1032.058599	          -48.159449	           -0.190438	            0.006201	           -0.398356	            0.045850	           -1.114761	            0.052019	          -25.723265	         1136.294702	           57.515684	           -0.228566	            0.005464	           -0.643151	           -0.002128	            0.093994	            0.004758
            0.009000	          -42.263667	         1028.271059	          -47.717577	           -0.190415	            0.006201	           -0.398301	            0.043502	           -1.058397	            0.049116	          -26.556032	         1133.345998	           57.270889	           -0.228452	            0.005465	           -0.643374	           -0.009071	            0.387115	            0.019562
            0.009500	          -41.940106	         1023.040437	          -47.052947	           -0.190383	            0.006201	           -0.398436	            0.042865	           -1.045603	            0.048091	          -27.428984	         1128.555674	           57.066472	           -0.228325	            0.005465	           -0.643319	           -0.012784	            0.525986	            0.026597
            0.010000	          -42.028547	         1017.087886	          -46.206969	           -0.190186	            0.006201	           -0.398429	            0.039545	           -0.956980	            0.043476	          -27.363564	         1123.399994	           56.954198	           -0.228217	            0.005466	           -0.643395	           -0.008999	            0.369442	            0.018730
            0.010500	          -42.025498	         1013.478444	          -45.259450	           -0.190198	            0.006201	           -0.398324	            0.039666	           -0.956570	            0.042718	          -26.971129	         1118.431998	           56.232377	           -0.228034	            0.005466	           -0.643232	           -0.001289	            0.053449	            0.002687
            0.011000	          -42.298085	         1008.067803	          -44.685833	           -0.190144	            0.006202	           -0.398491	            0.038014	           -0.905961	            0.040160	          -26.251143	         1113.646846	           56.121138	           -0.227979	            0.005466	           -0.643104	            0.000432	           -0.018319	           -0.000923
            0.011500	          -42.295683	         1003.017809	          -44.111346	           -0.190095	            0.006201	           -0.398456	            0.039101	           -0.927266	            0.040780	          -26.469063	         1109.044643	           55.447817	           -0.227951	            0.005466	           -0.643180	           -0.003262	            0.136673	            0.006833
            0.012000	          -42.568032	          996.886031	          -43.494961	           -0.189994	            0.006202	           -0.398629	            0.041795	           -0.978789	            0.042705	          -26.357542	         1104.074126	           55.148469	           -0.227822	            0.005467	           -0.643160	           -0.008842	            0.370378	            0.018500
